Jump_normalized_Motion_pl09
version=1
nRows=25
nColumns=43
inDegrees=yes
endheader
time		pelvis_tilt		pelvis_list		pelvis_rotation		pelvis_tx		pelvis_ty		pelvis_tz		hip_flexion_r		hip_adduction_r		hip_rotation_r		knee_angle_r		ankle_angle_r		subtalar_angle_r		mtp_angle_r		hip_flexion_l		hip_adduction_l		hip_rotation_l		knee_angle_l		ankle_angle_l		subtalar_angle_l		mtp_angle_l		lumbar_extension		lumbar_bending		lumbar_rotation		neck_flexion		neck_lateral_bending		neck_rotation		arm_flex_r		arm_add_r		arm_rot_r		elbow_flex_r		pro_sup_r		wrist_flex_r		wrist_dev_r		hand_finger_flex_r		arm_flex_l		arm_add_l		arm_rot_l		elbow_flex_l		pro_sup_l		wrist_flex_l		wrist_dev_l		hand_finger_flex_l		
1.930000		-2.093413		-14.888826		88.205560		-0.014252		1.604638		1.698813		96.547674		-8.242292		15.706730		-140.325485		27.981372		12.832790		11.850149		93.181111		-5.774252		4.614811		-142.692004		30.122670		9.790978		13.184807		-54.033827		-2.075601		-0.205229		36.239089		1.317017		-2.013941		34.323818		-28.878077		1.945108		78.561585		98.201426		-12.326572		-5.510695		10.050142		38.378321		-20.689302		-3.449482		71.824681		95.798517		-5.095472		2.646789		9.715734		
1.933460		-2.216205		-14.714516		88.196203		-0.014659		1.604843		1.697681		96.308972		-8.363687		15.928635		-140.433341		27.973405		13.038725		11.791473		92.820773		-5.724074		4.397931		-142.772727		30.139132		9.718598		13.007668		-54.073136		-2.180474		-0.284667		36.016984		1.377535		-2.079598		35.994753		-29.113244		3.302131		78.312977		97.132164		-12.928132		-5.604991		7.909935		39.910495		-20.884714		-2.044876		71.515500		94.455536		-6.021569		2.718582		8.229154		
1.936919		-2.237601		-14.963794		88.175040		-0.015037		1.604569		1.696836		96.481306		-8.379087		15.990921		-140.434758		27.951137		13.049838		11.784049		92.963492		-5.664097		4.364902		-142.814479		30.144016		9.730642		12.973542		-53.777594		-2.259180		-0.231629		36.347056		1.499853		-2.131214		37.503274		-29.191735		3.944438		78.271466		97.010102		-12.674356		-5.535813		7.634763		41.349472		-20.749213		-1.398668		71.398083		94.362042		-5.963248		2.891362		8.027996		
1.940379		-2.281670		-15.068019		88.132909		-0.015339		1.604641		1.695939		96.473432		-8.384955		16.065932		-140.425450		27.921299		13.028426		11.782587		92.903704		-5.643330		4.274945		-142.814099		30.160228		9.703809		12.908290		-53.617557		-2.378565		-0.211261		36.450027		1.645035		-2.183375		39.116305		-29.214394		4.704902		78.103799		96.626500		-12.544056		-5.486664		6.956123		42.843245		-20.666223		-0.603287		71.251220		94.061995		-6.160381		3.044953		7.524909		
1.943838		-2.377544		-14.991671		88.054580		-0.015605		1.605099		1.694962		96.249091		-8.377385		16.191924		-140.403437		27.920104		12.949257		11.800002		92.590690		-5.653651		4.097505		-142.783648		30.205300		9.603833		12.733726		-53.657357		-2.553397		-0.269319		36.411020		1.810646		-2.175522		40.827525		-29.223639		5.687725		77.890508		95.511050		-12.447797		-5.541332		5.116292		44.321343		-20.721132		0.414056		71.218187		93.060897		-6.734429		3.167921		6.286030		
1.947298		-2.382963		-15.277431		88.033004		-0.015913		1.604869		1.694093		96.401359		-8.398600		16.220487		-140.368697		27.956216		12.956893		11.816261		92.739518		-5.653508		4.044809		-142.786347		30.239587		9.618481		12.709852		-53.312381		-2.635035		-0.194907		36.664162		1.949623		-2.244173		42.357139		-29.198426		6.252274		77.790959		95.489435		-12.154069		-5.422934		4.873486		45.758544		-20.491613		0.969888		71.127509		93.037842		-6.617580		3.308675		6.118076		
1.950758		-2.405131		-15.475836		87.976795		-0.016098		1.604815		1.693179		96.415594		-8.362170		16.254367		-140.333208		28.039790		12.926214		11.843845		92.766742		-5.685070		3.971372		-142.778317		30.289235		9.607241		12.680155		-53.035946		-2.766164		-0.149044		36.741551		2.098920		-2.300491		43.958917		-29.145514		6.913481		77.606719		95.429492		-11.878954		-5.297508		4.500560		47.229861		-20.303833		1.596462		71.016881		92.977116		-6.598601		3.412295		5.810209		
1.954217		-2.473755		-15.512132		87.903606		-0.016382		1.605178		1.692186		96.241502		-8.356281		16.361539		-140.259417		28.145946		12.876202		12.011741		92.557311		-5.721793		3.798639		-142.730069		30.366872		9.524602		12.438650		-52.962122		-2.897021		-0.264447		36.811612		2.253241		-2.164375		45.755112		-29.084693		7.892384		77.333080		94.841988		-11.033600		-5.410517		1.853151		48.603008		-20.392271		2.399061		71.100599		91.908001		-6.566586		3.399683		3.940023		
1.957677		-2.489658		-15.742989		87.863054		-0.016571		1.605090		1.691256		96.276677		-8.334616		16.424500		-140.217782		28.283711		12.875158		12.101738		92.603314		-5.739843		3.750199		-142.713177		30.429310		9.480357		12.322044		-52.633847		-3.002776		-0.256951		36.840416		2.379211		-2.199393		47.362474		-28.919208		8.506479		77.099782		94.720662		-10.466466		-5.324628		0.665892		50.033167		-20.220701		2.992317		71.019109		91.570897		-6.373740		3.538052		3.107078		
1.961136		-2.484323		-16.010101		87.835636		-0.016765		1.604925		1.690303		96.355880		-8.307143		16.471393		-140.181851		28.420144		12.894792		12.123588		92.697796		-5.750068		3.718848		-142.700795		30.480843		9.453354		12.298956		-52.264455		-3.100627		-0.190415		36.862395		2.529360		-2.278059		48.908956		-28.798744		9.073188		76.927030		94.949798		-10.191409		-5.187249		0.533526		51.494671		-19.956047		3.559148		70.910802		91.715898		-6.226686		3.638466		2.955686		
1.964596		-2.476039		-16.232817		87.816799		-0.017036		1.604859		1.689296		96.393834		-8.303152		16.528765		-140.163801		28.535426		12.934059		12.139285		92.738920		-5.742292		3.673521		-142.687250		30.529465		9.401008		12.268120		-51.942740		-3.183647		-0.159934		36.882570		2.683332		-2.329693		50.483586		-28.636365		9.673047		76.712794		95.209330		-9.984653		-5.094976		0.359572		52.954994		-19.725967		4.167467		70.807288		91.837756		-6.155135		3.673189		2.747976		
1.968056		-2.484867		-16.424614		87.825193		-0.017251		1.604889		1.688239		96.402034		-8.332977		16.593386		-140.153772		28.621906		13.001564		12.146560		92.741569		-5.707942		3.613286		-142.668091		30.564825		9.325991		12.227374		-51.657938		-3.253730		-0.148810		36.893426		2.833550		-2.362687		52.068772		-28.410624		10.272029		76.470648		95.464355		-9.838057		-5.041594		0.147217		54.404877		-19.518544		4.803350		70.714057		91.938250		-6.155719		3.649811		2.499185		
1.971515		-2.485689		-16.602496		87.825199		-0.017647		1.604967		1.687159		96.417292		-8.404989		16.667619		-140.147363		28.690761		13.086765		12.146486		92.729945		-5.664895		3.541889		-142.643337		30.580491		9.245630		12.182150		-51.393032		-3.307324		-0.158954		36.926153		2.969179		-2.389838		53.644583		-28.124089		10.835757		76.218176		95.655111		-9.718841		-4.997498		-0.077014		55.857961		-19.296804		5.442465		70.621215		92.026201		-6.205993		3.597153		2.249366		
1.974975		-2.517137		-16.751537		87.840975		-0.017911		1.605112		1.686015		96.385230		-8.484420		16.740726		-140.148717		28.760888		13.191536		12.140385		92.683915		-5.612111		3.448551		-142.630530		30.575727		9.156721		12.128240		-51.151175		-3.374819		-0.182890		36.938039		3.092498		-2.412600		55.216617		-27.826314		11.415034		75.947838		95.770019		-9.585771		-4.950588		-0.345307		57.308039		-19.089762		6.115685		70.511245		92.107795		-6.305250		3.511966		1.980480		
1.978434		-2.565196		-16.822523		87.821795		-0.018321		1.605438		1.684830		96.275736		-8.587111		16.857430		-140.130429		28.859991		13.323457		12.120789		92.536054		-5.564213		3.327541		-142.599270		30.541011		9.048170		12.049971		-50.998891		-3.454085		-0.218122		36.865157		3.196638		-2.427751		56.816199		-27.549271		12.047180		75.690337		95.699195		-9.382080		-4.907862		-0.784666		58.782604		-18.902505		6.860701		70.399425		92.146499		-6.484493		3.344335		1.660493		
1.981894		-2.619239		-16.904349		87.800304		-0.018674		1.605767		1.683585		96.160718		-8.682486		16.965832		-140.116590		28.967411		13.456748		12.092762		92.392783		-5.529663		3.198308		-142.578308		30.505059		8.951782		11.962710		-50.838264		-3.546167		-0.249627		36.883033		3.267569		-2.438055		58.385453		-27.251484		12.627750		75.443962		95.496898		-9.140672		-4.856151		-1.332345		60.252909		-18.643384		7.535745		70.252889		92.122113		-6.665603		3.178682		1.357731		
1.985354		-2.702154		-16.762460		87.746279		-0.018997		1.606611		1.682230		95.767380		-8.767783		17.095083		-140.075709		29.121679		13.672184		11.992180		91.960398		-5.536027		2.992115		-142.526664		30.452656		8.797572		11.758254		-50.924521		-3.675155		-0.281435		36.743563		3.301107		-2.455889		60.054890		-27.048893		13.371656		75.172137		94.570010		-8.620378		-4.790777		-2.951237		61.847910		-18.407677		8.393667		69.970442		91.823002		-7.005010		2.815467		0.913194		
1.988813		-2.705768		-17.092521		87.725109		-0.019294		1.606601		1.680995		95.892353		-8.795902		17.140435		-140.021650		29.182729		13.687833		11.981270		92.097715		-5.490488		3.004733		-142.499965		30.437188		8.814989		11.730995		-50.516729		-3.748537		-0.226845		36.950717		3.383483		-2.506942		61.459655		-26.804436		13.804800		75.102142		94.532554		-8.387354		-4.685996		-3.157905		63.220156		-18.005942		8.824434		69.926529		91.855070		-6.888383		2.892973		0.911272		
1.992273		-2.708994		-17.341427		87.697257		-0.019498		1.606769		1.679725		95.910078		-8.784988		17.167718		-139.968863		29.237138		13.721045		11.975375		92.131951		-5.467425		3.003364		-142.462527		30.406935		8.817120		11.705208		-50.186031		-3.835825		-0.170033		37.019825		3.461286		-2.560988		62.922613		-26.551896		14.310480		74.953833		94.459229		-8.195930		-4.560156		-3.362358		64.661791		-17.626236		9.318380		69.798465		91.911373		-6.799343		2.944747		0.893066		
1.995732		-2.684673		-17.158753		87.605802		-0.019662		1.607213		1.678163		95.502166		-8.735839		17.220432		-140.029644		29.294615		13.767265		11.939345		91.685741		-5.547343		3.001974		-142.544042		30.375936		8.743341		11.588792		-50.230532		-3.953921		-0.048168		36.687260		3.590458		-2.631167		64.617052		-26.542362		15.380165		74.671736		93.788643		-7.989763		-4.452140		-4.381946		66.309750		-17.475243		10.279121		69.427259		91.899389		-6.785809		2.723613		0.790983		
1.999192		-2.660091		-17.320890		87.591324		-0.019863		1.607649		1.676707		95.400868		-8.714726		17.219478		-139.969447		29.296113		13.798321		11.914865		91.555971		-5.506881		3.015293		-142.488117		30.418221		8.710383		11.503418		-50.000606		-4.013544		0.014958		36.808664		3.645179		-2.661534		66.032326		-26.160482		15.823415		74.482865		93.293506		-7.958567		-4.410839		-5.127101		67.734420		-17.066585		10.733545		69.219727		91.848629		-6.826894		2.573415		0.701107		
2.002652		-2.604260		-17.248435		87.543430		-0.019935		1.608289		1.675137		95.056087		-8.649108		17.172600		-139.967255		29.237423		13.751508		11.879598		91.158028		-5.546699		3.039512		-142.485115		30.495548		8.680582		11.268013		-49.969889		-4.098503		0.108424		36.650205		3.747236		-2.677794		67.572526		-25.810100		16.570896		74.131386		92.273369		-8.073491		-4.392076		-6.612954		69.323843		-16.763025		11.471150		68.787905		91.720114		-6.993522		2.200067		0.404755		
2.006111		-2.565618		-17.589894		87.551072		-0.020134		1.608273		1.673681		95.193851		-8.623960		17.177962		-139.962376		29.205585		13.775180		11.878357		91.216341		-5.459784		3.106663		-142.447750		30.587374		8.647345		11.226981		-49.516190		-4.134567		0.174746		36.822026		3.832162		-2.743939		68.869069		-25.332672		16.839689		73.939017		92.191253		-7.995419		-4.271447		-6.805987		70.679445		-16.384970		11.898011		68.654468		91.763057		-6.906268		2.288082		0.352660		
2.009571		-2.523186		-17.849388		87.548627		-0.020251		1.608456		1.672172		95.217390		-8.578783		17.155534		-139.946952		29.139298		13.771853		11.874968		91.164483		-5.417861		3.164529		-142.393914		30.681022		8.621285		11.174220		-49.139271		-4.191887		0.227487		36.834722		3.952397		-2.803745		70.200236		-24.841888		17.170270		73.684413		92.048651		-7.995877		-4.143660		-7.046678		72.089146		-16.033986		12.427564		68.442584		91.785980		-6.884883		2.334918		0.224488		
2.013030		-2.493270		-18.046332		87.548849		-0.020190		1.609117		1.670567		95.090002		-8.520647		17.111564		-139.835434		29.073494		13.711447		11.871136		90.983166		-5.394806		3.204812		-142.247583		30.755319		8.641743		11.081162		-48.866767		-4.281769		0.275623		36.806014		4.072536		-2.848210		71.539958		-24.394450		17.568660		73.453264		91.674587		-8.091020		-4.092405		-7.425535		73.499943		-15.678498		13.019454		68.225234		91.625551		-7.032600		2.277769		-0.065925		
